<mxfile host="app.diagrams.net" modified="2021-08-21T03:16:07.768Z" agent="5.0 (Windows NT 10.0; Win64; x64) AppleWebKit/537.36 (KHTML, like Gecko) Chrome/91.0.4472.106 Safari/537.36" etag="qHBt4pkCg5YLHf6GpGyu" version="14.9.8" type="github">
  <diagram id="mg97Mdl2hb3oCWbUeMJg" name="Page-1">
    <mxGraphModel dx="1209" dy="749" grid="1" gridSize="10" guides="1" tooltips="1" connect="1" arrows="1" fold="1" page="1" pageScale="1" pageWidth="827" pageHeight="1169" math="0" shadow="0">
      <root>
        <mxCell id="0" />
        <mxCell id="1" parent="0" />
        <mxCell id="32ols15Bc3fSsCXA4Aej-1" value="&lt;p&gt;&lt;font style=&quot;font-size: 23px&quot; data-font-src=&quot;https://fonts.googleapis.com/css?family=ZCOOL+KuaiLe&quot;&gt;收集资料&lt;/font&gt;&lt;/p&gt;" style="whiteSpace=wrap;html=1;sketch=1;rounded=1;shadow=1;glass=0;fontFamily=ZCOOL QingKe HuangYou;fontSource=https%3A%2F%2Ffonts.googleapis.com%2Fcss%3Ffamily%3DZCOOL%2BQingKe%2BHuangYou;" parent="1" vertex="1">
          <mxGeometry x="20" y="330" width="120" height="60" as="geometry" />
        </mxCell>
        <mxCell id="32ols15Bc3fSsCXA4Aej-3" value="" style="shape=cross;whiteSpace=wrap;html=1;rounded=1;shadow=1;glass=0;sketch=1;fontFamily=ZCOOL QingKe HuangYou;fontSource=https%3A%2F%2Ffonts.googleapis.com%2Fcss%3Ffamily%3DZCOOL%2BQingKe%2BHuangYou;" parent="1" vertex="1">
          <mxGeometry x="168" y="340" width="40" height="40" as="geometry" />
        </mxCell>
        <mxCell id="32ols15Bc3fSsCXA4Aej-6" value="&lt;p&gt;&lt;font style=&quot;font-size: 23px&quot; data-font-src=&quot;https://fonts.googleapis.com/css?family=ZCOOL+KuaiLe&quot;&gt;理论基础/认知经验&lt;/font&gt;&lt;/p&gt;" style="whiteSpace=wrap;html=1;sketch=1;rounded=1;shadow=1;glass=0;fontFamily=ZCOOL QingKe HuangYou;fontSource=https%3A%2F%2Ffonts.googleapis.com%2Fcss%3Ffamily%3DZCOOL%2BQingKe%2BHuangYou;" parent="1" vertex="1">
          <mxGeometry x="240" y="330" width="220" height="60" as="geometry" />
        </mxCell>
        <mxCell id="32ols15Bc3fSsCXA4Aej-8" value="" style="shape=flexArrow;endArrow=classic;html=1;sketch=1;fontFamily=ZCOOL QingKe HuangYou;fontSource=https%3A%2F%2Ffonts.googleapis.com%2Fcss%3Ffamily%3DZCOOL%2BQingKe%2BHuangYou;shadow=1;" parent="1" edge="1">
          <mxGeometry width="50" height="50" relative="1" as="geometry">
            <mxPoint x="500" y="359.5" as="sourcePoint" />
            <mxPoint x="650" y="359.5" as="targetPoint" />
          </mxGeometry>
        </mxCell>
        <mxCell id="32ols15Bc3fSsCXA4Aej-9" value="&lt;font style=&quot;font-size: 21px&quot;&gt;逻辑判断&lt;/font&gt;" style="text;html=1;strokeColor=none;fillColor=none;align=center;verticalAlign=middle;whiteSpace=wrap;rounded=0;shadow=1;glass=0;sketch=1;fontFamily=ZCOOL QingKe HuangYou;fontSource=https%3A%2F%2Ffonts.googleapis.com%2Fcss%3Ffamily%3DZCOOL%2BQingKe%2BHuangYou;" parent="1" vertex="1">
          <mxGeometry x="510" y="310" width="120" height="40" as="geometry" />
        </mxCell>
        <mxCell id="32ols15Bc3fSsCXA4Aej-10" value="&lt;p&gt;&lt;font style=&quot;font-size: 23px&quot; data-font-src=&quot;https://fonts.googleapis.com/css?family=ZCOOL+KuaiLe&quot;&gt;结论&lt;/font&gt;&lt;/p&gt;" style="whiteSpace=wrap;html=1;sketch=1;rounded=1;shadow=1;glass=0;fontFamily=ZCOOL QingKe HuangYou;fontSource=https%3A%2F%2Ffonts.googleapis.com%2Fcss%3Ffamily%3DZCOOL%2BQingKe%2BHuangYou;" parent="1" vertex="1">
          <mxGeometry x="680" y="330" width="120" height="60" as="geometry" />
        </mxCell>
        <mxCell id="sC725IncK8pRUn57lBrr-1" value="" style="shape=flexArrow;endArrow=classic;html=1;shadow=1;fontFamily=ZCOOL QingKe HuangYou;fontSource=https%3A%2F%2Ffonts.googleapis.com%2Fcss%3Ffamily%3DZCOOL%2BQingKe%2BHuangYou;dashed=1;sketch=1;" edge="1" parent="1">
          <mxGeometry width="50" height="50" relative="1" as="geometry">
            <mxPoint x="840" y="359.5" as="sourcePoint" />
            <mxPoint x="970" y="360" as="targetPoint" />
          </mxGeometry>
        </mxCell>
        <mxCell id="sC725IncK8pRUn57lBrr-3" value="&lt;p&gt;&lt;span style=&quot;font-size: 23px&quot;&gt;预测&lt;/span&gt;&lt;/p&gt;" style="whiteSpace=wrap;html=1;sketch=1;rounded=1;shadow=1;glass=0;fontFamily=ZCOOL QingKe HuangYou;fontSource=https%3A%2F%2Ffonts.googleapis.com%2Fcss%3Ffamily%3DZCOOL%2BQingKe%2BHuangYou;" vertex="1" parent="1">
          <mxGeometry x="1000" y="330" width="120" height="60" as="geometry" />
        </mxCell>
        <mxCell id="sC725IncK8pRUn57lBrr-4" value="&lt;font style=&quot;font-size: 21px&quot;&gt;进一步&lt;/font&gt;" style="text;html=1;strokeColor=none;fillColor=none;align=center;verticalAlign=middle;whiteSpace=wrap;rounded=0;shadow=1;glass=0;sketch=1;fontFamily=ZCOOL QingKe HuangYou;fontSource=https%3A%2F%2Ffonts.googleapis.com%2Fcss%3Ffamily%3DZCOOL%2BQingKe%2BHuangYou;" vertex="1" parent="1">
          <mxGeometry x="840" y="310" width="120" height="40" as="geometry" />
        </mxCell>
      </root>
    </mxGraphModel>
  </diagram>
</mxfile>
